<svg width="36" height="36" viewBox="0 0 36 36" fill="none" xmlns="http://www.w3.org/2000/svg">
<path fill-rule="evenodd" clip-rule="evenodd" d="M7.75873 0.564924C14.5654 -0.188308 21.4347 -0.188308 28.2414 0.564924C31.9599 0.979368 34.9579 3.90198 35.3946 7.62807C36.2018 14.5185 36.2018 21.4794 35.3946 28.3698C34.9579 32.0959 31.96 35.0185 28.2433 35.4349C21.436 36.1884 14.5661 36.1884 7.75873 35.4349C4.04014 35.0185 1.04215 32.0959 0.605479 28.3718C-0.201826 21.4807 -0.201826 14.5192 0.605479 7.62807C1.04215 3.90198 4.04014 0.979368 7.75873 0.564924ZM27.791 6.26939C27.2716 6.26939 26.7736 6.47536 26.4063 6.84198C26.0391 7.2086 25.8328 7.70584 25.8328 8.22432C25.8328 8.7428 26.0391 9.24004 26.4063 9.60666C26.7736 9.97328 27.2716 10.1792 27.791 10.1792C28.3103 10.1792 28.8084 9.97328 29.1756 9.60666C29.5429 9.24004 29.7492 8.7428 29.7492 8.22432C29.7492 7.70584 29.5429 7.2086 29.1756 6.84198C28.8084 6.47536 28.3103 6.26939 27.791 6.26939ZM8.69866 17.9989C8.69866 15.5362 9.67863 13.1743 11.423 11.4328C13.1673 9.69138 15.5332 8.71305 18 8.71305C20.4669 8.71305 22.8328 9.69138 24.5771 11.4328C26.3215 13.1743 27.3014 15.5362 27.3014 17.9989C27.3014 20.4617 26.3215 22.8236 24.5771 24.5651C22.8328 26.3065 20.4669 27.2848 18 27.2848C15.5332 27.2848 13.1673 26.3065 11.423 24.5651C9.67863 22.8236 8.69866 20.4617 8.69866 17.9989Z" fill="white"/>
<path d="M17.9984 11.6445C16.3105 11.6445 14.6918 12.3139 13.4983 13.5054C12.3048 14.6969 11.6343 16.313 11.6343 17.998C11.6343 19.6831 12.3048 21.2991 13.4983 22.4906C14.6918 23.6822 16.3105 24.3515 17.9984 24.3515C19.6862 24.3515 21.305 23.6822 22.4985 22.4906C23.692 21.2991 24.3625 19.6831 24.3625 17.998C24.3625 16.313 23.692 14.6969 22.4985 13.5054C21.305 12.3139 19.6862 11.6445 17.9984 11.6445Z" fill="white"/>
</svg>
