<svg width="243" height="76" viewBox="0 0 243 76" fill="none" xmlns="http://www.w3.org/2000/svg">
<path d="M2.496 10.76C1.312 10.76 0.72 10.184 0.72 9.032C0.72 8.584 1.056 8.216 1.728 7.928C2.4 7.608 3.28 7.352 4.368 7.16C5.488 6.936 6.672 6.776 7.92 6.68C9.2 6.584 10.432 6.52 11.616 6.488C12.8 6.424 13.84 6.392 14.736 6.392C15.632 6.36 16.224 6.344 16.512 6.344H19.152C21.616 6.344 24.112 6.392 26.64 6.488C29.168 6.584 31.6 6.856 33.936 7.304C34.064 7.336 34.288 7.4 34.608 7.496C34.96 7.56 35.28 7.672 35.568 7.832C35.888 7.96 36.048 8.136 36.048 8.36C36.048 8.52 35.904 8.632 35.616 8.696C35.36 8.728 35.136 8.744 34.944 8.744C34.528 8.744 34.096 8.712 33.648 8.648C33.2 8.584 32.752 8.52 32.304 8.456C30.992 8.232 29.632 8.104 28.224 8.072C26.848 8.04 25.472 8.024 24.096 8.024C21.664 8.024 19.216 8.072 16.752 8.168C14.288 8.232 11.84 8.408 9.408 8.696C9.344 8.952 9.008 9.208 8.4 9.464C7.792 9.72 7.072 9.944 6.24 10.136C5.44 10.328 4.672 10.488 3.936 10.616C3.232 10.712 2.752 10.76 2.496 10.76ZM6.384 38.12C5.68 38.12 5.184 37.864 4.896 37.352C4.608 36.872 4.464 36.296 4.464 35.624C4.464 34.536 4.704 33.24 5.184 31.736C5.664 30.2 6.288 28.584 7.056 26.888C7.824 25.16 8.64 23.464 9.504 21.8C10.368 20.104 11.184 18.568 11.952 17.192C12.72 15.784 13.36 14.648 13.872 13.784C14.256 13.112 14.656 12.392 15.072 11.624C15.488 10.824 15.936 10.12 16.416 9.512C16.576 9.288 16.848 9.144 17.232 9.08C17.616 9.016 17.92 8.984 18.144 8.984C18.4 8.984 18.688 9.032 19.008 9.128C19.328 9.224 19.504 9.448 19.536 9.8C19.536 10.056 19.472 10.312 19.344 10.568C19.248 10.792 19.136 11 19.008 11.192C17.568 13.528 16.128 15.768 14.688 17.912C13.248 20.056 11.904 22.36 10.656 24.824C10.4 25.336 10.016 26.056 9.504 26.984C8.992 27.88 8.464 28.872 7.92 29.96C7.408 31.048 6.96 32.12 6.576 33.176C6.224 34.232 6.048 35.16 6.048 35.96C6.048 36.088 6.064 36.296 6.096 36.584C6.16 36.872 6.336 37.016 6.624 37.016C6.784 37.016 6.864 37.16 6.864 37.448C6.864 37.608 6.816 37.752 6.72 37.88C6.656 38.04 6.544 38.12 6.384 38.12ZM27.7129 35.528C27.2329 35.528 26.6729 35.368 26.0329 35.048C25.3929 34.728 25.0729 34.296 25.0729 33.752C25.0729 33.272 25.2489 32.664 25.6009 31.928C25.9529 31.192 26.3849 30.408 26.8969 29.576C27.4089 28.744 27.9369 27.944 28.4809 27.176C29.0249 26.376 29.4889 25.704 29.8729 25.16C30.2889 24.584 30.5449 24.2 30.6409 24.008C31.0889 23.4 31.3609 23.016 31.4569 22.856C31.5529 22.696 31.6169 22.568 31.6489 22.472C31.3929 22.664 30.9929 22.968 30.4489 23.384C29.9049 23.768 29.3609 24.168 28.8169 24.584C28.2729 25 27.8729 25.32 27.6169 25.544C25.8249 27.112 24.3209 28.616 23.1049 30.056C21.9209 31.464 20.8169 32.968 19.7929 34.568C19.7609 34.6 19.6809 34.632 19.5529 34.664C19.4249 34.664 19.3289 34.664 19.2649 34.664C19.0729 34.664 18.7849 34.616 18.4009 34.52C18.0489 34.424 17.9049 34.216 17.9689 33.896C18.1609 33.416 18.4169 32.904 18.7369 32.36C19.0569 31.816 19.5049 31.08 20.0809 30.152C20.6569 29.192 21.4089 27.848 22.3369 26.12C22.6249 25.576 23.1049 24.68 23.7769 23.432C24.4809 22.184 25.3289 20.76 26.3209 19.16C27.3449 17.56 28.4809 15.976 29.7289 14.408C31.0089 12.808 32.3849 11.384 33.8569 10.136C35.3289 8.888 36.8649 7.992 38.4649 7.448C38.8809 7.288 39.2489 7.208 39.5689 7.208C40.1769 7.208 40.5929 7.416 40.8169 7.832C41.0729 8.216 41.4089 8.536 41.8249 8.792C42.0809 8.952 42.2089 9.208 42.2089 9.56C42.2089 10.072 41.7769 10.776 40.9129 11.672C40.0809 12.536 39.0089 13.496 37.6969 14.552C36.3849 15.576 35.0089 16.6 33.5689 17.624C32.1289 18.648 30.7689 19.592 29.4889 20.456C28.2409 21.32 27.2809 21.992 26.6089 22.472C26.4809 22.728 26.2249 23.144 25.8409 23.72C25.4889 24.264 25.1049 24.856 24.6889 25.496C24.2729 26.136 23.8889 26.728 23.5369 27.272C23.1849 27.816 22.9609 28.2 22.8649 28.424C23.7609 27.592 24.7049 26.712 25.6969 25.784C26.7209 24.856 27.7129 23.96 28.6729 23.096C29.6649 22.232 30.5289 21.496 31.2649 20.888C31.4249 20.76 31.6169 20.68 31.8409 20.648C32.0969 20.616 32.3049 20.6 32.4649 20.6C32.9129 20.6 33.4409 20.792 34.0489 21.176C34.6569 21.56 34.9609 22.024 34.9609 22.568C34.9609 22.92 34.7689 23.272 34.3849 23.624C33.4249 24.488 32.4489 25.496 31.4569 26.648C30.4649 27.768 29.5689 28.952 28.7689 30.2C28.5449 30.584 28.2249 31.144 27.8089 31.88C27.4249 32.616 27.2329 33.208 27.2329 33.656C27.2329 33.976 27.3289 34.136 27.5209 34.136C27.9049 34.136 28.4329 33.928 29.1049 33.512C29.8089 33.096 30.5609 32.568 31.3609 31.928C32.1929 31.256 33.0089 30.568 33.8089 29.864C34.6409 29.16 35.3769 28.504 36.0169 27.896C36.6569 27.288 37.1209 26.824 37.4089 26.504C37.6009 26.312 37.7609 26.216 37.8889 26.216C38.0809 26.216 38.1769 26.312 38.1769 26.504C38.1769 26.6 38.1129 26.744 37.9849 26.936C37.5689 27.48 36.9609 28.168 36.1609 29C35.3609 29.8 34.4809 30.632 33.5209 31.496C32.5609 32.328 31.6329 33.096 30.7369 33.8C29.8729 34.472 29.1529 34.984 28.5769 35.336C28.3529 35.464 28.0649 35.528 27.7129 35.528ZM27.6169 20.6C27.8729 20.408 28.3049 20.104 28.9129 19.688C29.5529 19.24 30.2569 18.744 31.0249 18.2C31.8249 17.624 32.6089 17.064 33.3769 16.52C34.1449 15.944 34.7849 15.432 35.2969 14.984C36.3209 14.088 37.1689 13.352 37.8409 12.776C38.5449 12.2 39.1529 11.528 39.6649 10.76C39.7929 10.6 39.8729 10.456 39.9049 10.328C39.9369 10.2 39.9529 10.088 39.9529 9.992C39.9529 9.8 39.8569 9.656 39.6649 9.56C39.5049 9.464 39.2969 9.416 39.0409 9.416C38.5609 9.416 37.9369 9.672 37.1689 10.184C36.4009 10.696 35.5689 11.384 34.6729 12.248C33.7769 13.08 32.8809 13.992 31.9849 14.984C31.0889 15.976 30.2569 16.968 29.4889 17.96C28.7209 18.92 28.0969 19.8 27.6169 20.6ZM38.2665 34.568C36.3465 34.568 35.3865 33.624 35.3865 31.736C35.3865 31 35.5785 30.152 35.9625 29.192C36.3785 28.2 36.9225 27.208 37.5945 26.216C38.2665 25.224 39.0185 24.312 39.8505 23.48C40.6825 22.616 41.5305 21.928 42.3945 21.416C43.2905 20.872 44.1225 20.6 44.8905 20.6C45.1465 20.6 45.3225 20.664 45.4185 20.792C45.5465 20.888 45.6425 21.064 45.7065 21.32C45.7705 21.448 45.8185 21.592 45.8505 21.752C45.8825 21.912 45.9305 22.072 45.9945 22.232C46.1225 22.456 46.2345 22.68 46.3305 22.904C46.4265 23.128 46.4745 23.368 46.4745 23.624C46.4745 23.944 46.3945 24.232 46.2345 24.488C46.0745 24.712 45.8825 24.92 45.6585 25.112C45.3385 25.4 44.8585 25.768 44.2185 26.216C43.5785 26.632 42.8745 27.064 42.1065 27.512C41.3705 27.928 40.6505 28.296 39.9465 28.616C39.2745 28.936 38.7305 29.128 38.3145 29.192C38.0265 29.64 37.7225 30.2 37.4025 30.872C37.1145 31.512 36.9705 32.104 36.9705 32.648C36.9705 32.936 37.0345 33.192 37.1625 33.416C37.3225 33.64 37.5625 33.752 37.8825 33.752C38.3945 33.752 39.0665 33.512 39.8985 33.032C40.7625 32.52 41.6585 31.912 42.5865 31.208C43.5145 30.472 44.3625 29.768 45.1305 29.096C45.9305 28.392 46.5225 27.848 46.9065 27.464L48.4425 25.832C48.6345 25.64 48.8425 25.544 49.0665 25.544C49.2585 25.544 49.3545 25.624 49.3545 25.784C49.3545 25.976 49.0825 26.376 48.5385 26.984C47.9945 27.56 47.3385 28.216 46.5705 28.952C45.8345 29.656 45.1465 30.312 44.5065 30.92C43.8665 31.496 43.4505 31.864 43.2585 32.024C42.5865 32.6 41.8185 33.176 40.9545 33.752C40.0905 34.296 39.1945 34.568 38.2665 34.568ZM39.1305 27.944C39.4505 27.752 39.9305 27.448 40.5705 27.032C41.2425 26.616 41.9305 26.152 42.6345 25.64C43.3385 25.128 43.9305 24.616 44.4105 24.104C44.9225 23.592 45.1785 23.144 45.1785 22.76C45.1785 22.664 45.1625 22.584 45.1305 22.52C45.0985 22.488 45.0345 22.472 44.9385 22.472C44.5225 22.472 44.0265 22.696 43.4505 23.144C42.8745 23.592 42.2985 24.136 41.7225 24.776C41.1465 25.384 40.6185 25.992 40.1385 26.6C39.6905 27.176 39.3545 27.624 39.1305 27.944ZM84.4335 37.256C83.9215 37.256 83.5535 37.048 83.3295 36.632C83.1375 36.216 83.0415 35.8 83.0415 35.384C83.0415 34.808 83.2015 34.168 83.5215 33.464C83.8735 32.76 84.2575 32.056 84.6735 31.352C85.1215 30.648 85.4575 30.024 85.6815 29.48C84.5615 30.248 83.2015 31.016 81.6015 31.784C80.0335 32.552 78.3535 33.256 76.5615 33.896C74.8015 34.504 73.0735 35 71.3775 35.384C69.6815 35.768 68.1455 35.96 66.7695 35.96C64.6255 35.96 62.9135 35.448 61.6335 34.424C60.3535 33.4 59.7135 31.752 59.7135 29.48C59.7135 27.624 60.1455 25.752 61.0095 23.864C61.8735 21.944 63.0415 20.088 64.5135 18.296C66.0175 16.472 67.6975 14.792 69.5535 13.256C71.4415 11.688 73.4255 10.312 75.5055 9.128C77.5855 7.944 79.6335 7.016 81.6495 6.344C83.6975 5.672 85.6015 5.336 87.3615 5.336C88.2255 5.336 88.9935 5.576 89.6655 6.056C90.3695 6.504 90.9135 7.096 91.2975 7.832C91.7135 8.568 91.9215 9.352 91.9215 10.184C91.9215 10.888 91.6975 11.624 91.2495 12.392C90.8015 13.16 90.2255 13.816 89.5215 14.36C88.8495 14.872 88.1455 15.128 87.4095 15.128C87.2815 15.128 87.1535 15.096 87.0255 15.032C86.9295 14.968 86.8815 14.872 86.8815 14.744C86.8815 14.584 87.0415 14.328 87.3615 13.976C87.6815 13.624 88.0495 13.208 88.4655 12.728C88.8815 12.248 89.2495 11.72 89.5695 11.144C89.8895 10.536 90.0495 9.896 90.0495 9.224C90.0495 8.456 89.7615 7.928 89.1855 7.64C88.6415 7.352 88.0335 7.208 87.3615 7.208C86.0495 7.208 84.4975 7.576 82.7055 8.312C80.9135 9.016 79.0415 9.992 77.0895 11.24C75.1375 12.488 73.2335 13.896 71.3775 15.464C69.5215 17.032 67.8255 18.68 66.2895 20.408C64.7855 22.104 63.5855 23.784 62.6895 25.448C61.7935 27.08 61.3455 28.6 61.3455 30.008C61.3455 31.064 61.6815 31.864 62.3535 32.408C63.0255 32.952 63.8255 33.32 64.7535 33.512C65.7135 33.704 66.6095 33.8 67.4415 33.8C68.5295 33.8 69.9055 33.64 71.5695 33.32C73.2655 33 75.0575 32.552 76.9455 31.976C78.8335 31.368 80.6415 30.664 82.3695 29.864C84.1295 29.032 85.6175 28.104 86.8335 27.08C88.0815 26.056 88.8815 24.952 89.2335 23.768C88.9455 23.672 88.4975 23.624 87.8895 23.624C87.1855 23.624 86.3215 23.688 85.2975 23.816C84.3055 23.912 83.2975 24.04 82.2735 24.2C81.2495 24.328 80.3055 24.472 79.4415 24.632C78.5775 24.76 77.9215 24.856 77.4735 24.92C75.9055 25.304 74.5615 25.704 73.4415 26.12C72.3535 26.536 71.5375 26.744 70.9935 26.744C70.3855 26.744 70.0815 26.392 70.0815 25.688C70.0815 25.112 70.4815 24.632 71.2815 24.248C72.1135 23.832 73.2015 23.496 74.5455 23.24C75.8895 22.952 77.3615 22.728 78.9615 22.568C80.5615 22.376 82.1455 22.248 83.7135 22.184C85.3135 22.088 86.7535 22.024 88.0335 21.992C89.3455 21.96 90.3695 21.944 91.1055 21.944C91.6495 21.944 92.3535 21.96 93.2175 21.992C94.1135 21.992 95.0095 22.04 95.9055 22.136C96.8015 22.2 97.5535 22.312 98.1615 22.472C98.7695 22.632 99.0735 22.856 99.0735 23.144C99.0735 23.336 98.9295 23.464 98.6415 23.528C98.3855 23.592 98.0655 23.624 97.6815 23.624C97.2655 23.624 96.8495 23.608 96.4335 23.576C96.0175 23.512 95.7295 23.48 95.5695 23.48C94.7375 23.48 93.8415 23.816 92.8815 24.488C91.9535 25.128 91.0255 25.976 90.0975 27.032C89.2015 28.056 88.3695 29.16 87.6015 30.344C86.8655 31.528 86.2735 32.664 85.8255 33.752C85.3775 34.84 85.1535 35.752 85.1535 36.488C85.1535 36.744 85.1695 36.936 85.2015 37.064C85.0735 37.096 84.9455 37.128 84.8175 37.16C84.6895 37.224 84.5615 37.256 84.4335 37.256ZM101.666 35.576C101.154 35.576 100.61 35.32 100.034 34.808C99.4895 34.264 99.2175 33.736 99.2175 33.224C99.2175 32.584 99.4415 31.864 99.8895 31.064C100.338 30.232 100.866 29.432 101.474 28.664C102.082 27.896 102.61 27.24 103.058 26.696C103.506 26.12 103.73 25.736 103.73 25.544V25.448C103.442 25.192 103.17 24.952 102.914 24.728C102.658 24.472 102.306 24.344 101.858 24.344C101.538 24.344 101.122 24.536 100.61 24.92C100.13 25.304 99.6335 25.752 99.1215 26.264C98.6095 26.776 98.1455 27.256 97.7295 27.704C97.3135 28.152 97.0095 28.456 96.8175 28.616C96.6895 28.744 96.5615 28.824 96.4335 28.856C96.3375 28.888 96.2575 28.904 96.1935 28.904C96.0655 28.904 96.0015 28.84 96.0015 28.712C96.0015 28.584 96.0655 28.456 96.1935 28.328C96.7055 27.656 97.2975 26.968 97.9695 26.264C98.6415 25.56 99.2495 24.92 99.7935 24.344C100.338 23.736 100.658 23.304 100.754 23.048C101.01 22.312 101.266 21.656 101.522 21.08C101.81 20.504 102.258 19.96 102.866 19.448C103.122 19.192 103.426 18.984 103.778 18.824C104.13 18.664 104.482 18.584 104.834 18.584C105.154 18.584 105.41 18.68 105.602 18.872C105.826 19.032 105.938 19.288 105.938 19.64C105.938 20.024 105.762 20.408 105.41 20.792C105.09 21.176 104.706 21.544 104.258 21.896C103.81 22.216 103.41 22.504 103.058 22.76C102.738 23.016 102.594 23.224 102.626 23.384C102.818 23.512 103.186 23.672 103.73 23.864C104.306 24.056 104.706 24.152 104.93 24.152C105.186 24.152 105.426 24.104 105.65 24.008C105.874 23.912 106.098 23.864 106.322 23.864C106.642 23.864 106.962 23.96 107.282 24.152C107.602 24.344 107.762 24.632 107.762 25.016C107.762 25.336 107.634 25.64 107.378 25.928C107.154 26.184 106.914 26.408 106.658 26.6C106.274 26.888 105.762 27.32 105.122 27.896C104.482 28.472 103.826 29.112 103.154 29.816C102.514 30.52 101.954 31.224 101.474 31.928C101.026 32.6 100.802 33.192 100.802 33.704C100.802 33.832 100.834 33.96 100.898 34.088C100.93 34.12 100.994 34.136 101.09 34.136C101.73 34.136 102.45 33.848 103.25 33.272C104.05 32.696 104.85 31.992 105.65 31.16C106.482 30.328 107.25 29.512 107.954 28.712C108.69 27.88 109.314 27.24 109.826 26.792C109.89 26.728 109.97 26.664 110.066 26.6C110.162 26.536 110.258 26.504 110.354 26.504C110.514 26.504 110.594 26.616 110.594 26.84C110.594 26.968 110.37 27.288 109.922 27.8C109.506 28.312 108.962 28.92 108.29 29.624C107.618 30.328 106.914 31.048 106.178 31.784C105.474 32.52 104.818 33.176 104.21 33.752C103.602 34.296 103.17 34.68 102.914 34.904C102.562 35.192 102.306 35.368 102.146 35.432C101.986 35.528 101.826 35.576 101.666 35.576ZM110.923 34.568C109.003 34.568 108.043 33.624 108.043 31.736C108.043 31 108.235 30.152 108.619 29.192C109.035 28.2 109.579 27.208 110.251 26.216C110.923 25.224 111.675 24.312 112.507 23.48C113.339 22.616 114.187 21.928 115.051 21.416C115.947 20.872 116.779 20.6 117.547 20.6C117.803 20.6 117.979 20.664 118.075 20.792C118.203 20.888 118.299 21.064 118.363 21.32C118.427 21.448 118.475 21.592 118.507 21.752C118.539 21.912 118.587 22.072 118.651 22.232C118.779 22.456 118.891 22.68 118.987 22.904C119.083 23.128 119.131 23.368 119.131 23.624C119.131 23.944 119.051 24.232 118.891 24.488C118.731 24.712 118.539 24.92 118.315 25.112C117.995 25.4 117.515 25.768 116.875 26.216C116.235 26.632 115.531 27.064 114.763 27.512C114.027 27.928 113.307 28.296 112.603 28.616C111.931 28.936 111.387 29.128 110.971 29.192C110.683 29.64 110.379 30.2 110.059 30.872C109.771 31.512 109.627 32.104 109.627 32.648C109.627 32.936 109.691 33.192 109.819 33.416C109.979 33.64 110.219 33.752 110.539 33.752C111.051 33.752 111.723 33.512 112.555 33.032C113.419 32.52 114.315 31.912 115.243 31.208C116.171 30.472 117.019 29.768 117.787 29.096C118.587 28.392 119.179 27.848 119.563 27.464L121.099 25.832C121.291 25.64 121.499 25.544 121.723 25.544C121.915 25.544 122.011 25.624 122.011 25.784C122.011 25.976 121.739 26.376 121.195 26.984C120.651 27.56 119.995 28.216 119.227 28.952C118.491 29.656 117.803 30.312 117.163 30.92C116.523 31.496 116.107 31.864 115.915 32.024C115.243 32.6 114.475 33.176 113.611 33.752C112.747 34.296 111.851 34.568 110.923 34.568ZM111.787 27.944C112.107 27.752 112.587 27.448 113.227 27.032C113.899 26.616 114.587 26.152 115.291 25.64C115.995 25.128 116.587 24.616 117.067 24.104C117.579 23.592 117.835 23.144 117.835 22.76C117.835 22.664 117.819 22.584 117.787 22.52C117.755 22.488 117.691 22.472 117.595 22.472C117.179 22.472 116.683 22.696 116.107 23.144C115.531 23.592 114.955 24.136 114.379 24.776C113.803 25.384 113.275 25.992 112.795 26.6C112.347 27.176 112.011 27.624 111.787 27.944ZM111.872 53.384C110.4 53.384 109.664 52.648 109.664 51.176C109.664 51.016 109.68 50.856 109.712 50.696C109.712 50.536 109.728 50.376 109.76 50.216C110.016 49.064 110.56 47.96 111.392 46.904C112.224 45.848 113.2 44.856 114.32 43.928C115.44 43.032 116.576 42.184 117.728 41.384C118.912 40.616 119.968 39.944 120.896 39.368C121.44 39.016 122.128 38.584 122.96 38.072C123.824 37.56 124.736 37 125.696 36.392C126.656 35.816 127.568 35.272 128.432 34.76C128.784 33.864 129.024 32.872 129.152 31.784C129.312 30.664 129.392 29.624 129.392 28.664V28.28C129.008 28.856 128.448 29.528 127.712 30.296C126.976 31.064 126.144 31.816 125.216 32.552C124.288 33.256 123.376 33.848 122.48 34.328C121.584 34.808 120.768 35.048 120.032 35.048C119.52 35.048 119.168 34.888 118.976 34.568C118.816 34.248 118.736 33.88 118.736 33.464C118.736 32.344 118.976 31.192 119.456 30.008C119.936 28.824 120.48 27.736 121.088 26.744C121.696 25.72 122.24 24.872 122.72 24.2C123.2 23.496 123.44 23.096 123.44 23C123.44 22.968 123.408 22.952 123.344 22.952C123.216 22.952 123.072 22.952 122.912 22.952C122.784 22.952 122.768 22.856 122.864 22.664C123.312 22.12 123.872 21.64 124.544 21.224C125.216 20.808 125.856 20.6 126.464 20.6C126.688 20.6 126.944 20.696 127.232 20.888C127.552 21.048 127.712 21.256 127.712 21.512C127.712 21.672 127.616 21.848 127.424 22.04C127.2 22.264 126.928 22.52 126.608 22.808C126.32 23.096 125.92 23.544 125.408 24.152C125.12 24.472 124.72 25 124.208 25.736C123.696 26.44 123.168 27.256 122.624 28.184C122.08 29.08 121.616 29.976 121.232 30.872C120.88 31.736 120.704 32.488 120.704 33.128C120.704 33.224 120.704 33.336 120.704 33.464C120.736 33.56 120.816 33.656 120.944 33.752C121.392 33.784 121.952 33.592 122.624 33.176C123.296 32.728 124 32.168 124.736 31.496C125.504 30.792 126.224 30.056 126.896 29.288C127.6 28.488 128.208 27.752 128.72 27.08C129.264 26.376 129.648 25.816 129.872 25.4C130.224 24.76 130.752 24.44 131.456 24.44C131.968 24.44 132.256 24.552 132.32 24.776C132.416 25 132.464 25.304 132.464 25.688C132.464 26.936 132.384 28.04 132.224 29C132.096 29.928 131.84 30.984 131.456 32.168C133.504 30.408 135.456 28.552 137.312 26.6C137.344 26.536 137.408 26.456 137.504 26.36C137.632 26.264 137.728 26.216 137.792 26.216C137.984 26.216 138.08 26.312 138.08 26.504C138.08 26.76 137.984 27.016 137.792 27.272C137.504 27.624 137.184 27.976 136.832 28.328C136.512 28.68 136.192 29.032 135.872 29.384C135.104 30.216 134.32 31.048 133.52 31.88C132.72 32.68 131.872 33.448 130.976 34.184C129.504 38.056 127.568 41.448 125.168 44.36C122.8 47.304 119.808 49.816 116.192 51.896C115.584 52.248 114.896 52.584 114.128 52.904C113.36 53.224 112.608 53.384 111.872 53.384ZM112.976 52.184C113.84 52.184 114.784 51.864 115.808 51.224C116.8 50.616 117.792 49.848 118.784 48.92C119.776 47.992 120.672 47.064 121.472 46.136C122.304 45.24 122.96 44.488 123.44 43.88C123.984 43.144 124.512 42.408 125.024 41.672C125.536 40.968 126.016 40.232 126.464 39.464C127.136 38.344 127.696 37.256 128.144 36.2C128.176 36.104 128.144 36.04 128.048 36.008C127.984 36.008 127.952 36.008 127.952 36.008C126.96 36.712 125.952 37.4 124.928 38.072C123.936 38.776 122.928 39.464 121.904 40.136C121.392 40.456 120.704 40.92 119.84 41.528C118.976 42.168 118.048 42.872 117.056 43.64C116.064 44.44 115.12 45.256 114.224 46.088C113.328 46.952 112.592 47.784 112.016 48.584C111.44 49.416 111.152 50.152 111.152 50.792C111.152 51.304 111.36 51.656 111.776 51.848C112.16 52.072 112.56 52.184 112.976 52.184ZM150.428 34.952C149.564 34.952 148.892 34.68 148.412 34.136C147.964 33.592 147.644 32.936 147.452 32.168C147.292 31.4 147.212 30.68 147.212 30.008C147.212 28.728 147.484 27.224 148.028 25.496C148.604 23.768 149.372 21.976 150.332 20.12C151.292 18.232 152.38 16.408 153.596 14.648C154.812 12.856 156.076 11.272 157.388 9.896C158.732 8.52 160.028 7.496 161.276 6.824C161.532 6.664 161.964 6.504 162.572 6.344C163.18 6.152 163.66 6.056 164.012 6.056C164.3 6.056 164.444 6.12 164.444 6.248C164.444 6.344 164.3 6.52 164.012 6.776C162.988 7.64 161.58 9.016 159.788 10.904C157.996 12.792 156.012 15.352 153.836 18.584C152.524 20.536 151.388 22.568 150.428 24.68C149.5 26.76 149.036 28.776 149.036 30.728C149.036 31.24 149.148 31.768 149.372 32.312C149.596 32.824 150.028 33.08 150.668 33.08C151.404 33.08 152.3 32.76 153.356 32.12C154.412 31.48 155.484 30.696 156.572 29.768C157.692 28.808 158.716 27.864 159.644 26.936C160.604 26.008 161.356 25.256 161.9 24.68C163.468 23.048 164.956 21.336 166.364 19.544C167.804 17.752 169.068 15.944 170.156 14.12C170.38 13.768 170.62 13.288 170.876 12.68C171.132 12.072 171.436 11.528 171.788 11.048C172.14 10.568 172.54 10.328 172.988 10.328C173.308 10.328 173.66 10.392 174.044 10.52C174.46 10.616 174.78 10.808 175.004 11.096C175.164 11.32 175.244 11.576 175.244 11.864C175.244 12.28 175.148 12.728 174.956 13.208C174.796 13.656 174.668 14.024 174.572 14.312C173.868 16.584 173.18 18.84 172.508 21.08C171.836 23.288 171.5 25.656 171.5 28.184C171.5 28.856 171.564 29.592 171.692 30.392C171.852 31.16 172.156 31.816 172.604 32.36C173.052 32.904 173.724 33.176 174.62 33.176C175.868 33.176 177.148 32.712 178.46 31.784C179.804 30.856 181.1 29.64 182.348 28.136C183.596 26.632 184.732 24.984 185.756 23.192C186.812 21.4 187.692 19.64 188.396 17.912C188.556 17.528 188.764 16.92 189.02 16.088C189.308 15.256 189.564 14.328 189.788 13.304C190.012 12.248 190.124 11.256 190.124 10.328C190.124 9.496 189.98 8.776 189.692 8.168C189.436 7.528 188.972 7.144 188.3 7.016C188.14 6.984 187.932 6.952 187.676 6.92C187.42 6.888 187.292 6.728 187.292 6.44C187.292 6.152 187.436 5.992 187.724 5.96C188.044 5.896 188.3 5.864 188.492 5.864C190.124 5.864 191.244 6.392 191.852 7.448C192.46 8.504 192.764 9.752 192.764 11.192C192.764 12.568 192.572 13.976 192.188 15.416C191.804 16.856 191.42 17.992 191.036 18.824C190.204 20.648 189.148 22.488 187.868 24.344C186.62 26.168 185.244 27.848 183.74 29.384C182.268 30.92 180.764 32.168 179.228 33.128C177.692 34.056 176.22 34.52 174.812 34.52C173.596 34.52 172.62 34.264 171.884 33.752C171.148 33.24 170.588 32.568 170.204 31.736C169.82 30.904 169.548 29.992 169.388 29C169.26 28.008 169.196 27.032 169.196 26.072C169.196 24.856 169.26 23.656 169.388 22.472C169.516 21.288 169.612 20.104 169.676 18.92C168.876 19.688 167.9 20.696 166.748 21.944C165.596 23.192 164.364 24.504 163.052 25.88C161.644 27.352 160.188 28.792 158.684 30.2C157.18 31.576 155.724 32.712 154.316 33.608C152.908 34.504 151.612 34.952 150.428 34.952ZM198.821 35.432C198.533 35.432 198.197 35.304 197.813 35.048C197.461 34.792 197.157 34.504 196.901 34.184C196.645 33.832 196.517 33.512 196.517 33.224C196.517 32.744 196.693 32.104 197.045 31.304C197.397 30.472 197.797 29.656 198.245 28.856C198.725 28.056 199.093 27.464 199.349 27.08C198.901 27.464 198.325 28.088 197.621 28.952C196.949 29.784 196.213 30.68 195.413 31.64C194.645 32.568 193.893 33.368 193.157 34.04C192.453 34.712 191.845 35.048 191.333 35.048C190.629 35.048 190.053 34.808 189.605 34.328C189.189 33.816 188.981 33.208 188.981 32.504C188.981 31.544 189.253 30.52 189.797 29.432C190.341 28.312 191.045 27.24 191.909 26.216C192.805 25.16 193.765 24.2 194.789 23.336C195.845 22.472 196.869 21.784 197.861 21.272C198.885 20.76 199.797 20.504 200.597 20.504C201.461 20.504 202.165 20.712 202.709 21.128C203.253 21.512 203.525 22.104 203.525 22.904C203.525 23.032 203.493 23.272 203.429 23.624C203.397 23.976 203.285 24.152 203.093 24.152C202.997 24.152 202.837 24.008 202.613 23.72C202.421 23.432 202.149 23.144 201.797 22.856C201.445 22.568 200.997 22.424 200.453 22.424C199.557 22.424 198.613 22.76 197.621 23.432C196.661 24.072 195.733 24.904 194.837 25.928C193.941 26.92 193.157 27.944 192.485 29C191.813 30.056 191.301 30.968 190.949 31.736C190.853 31.96 190.757 32.2 190.661 32.456C190.597 32.712 190.565 32.968 190.565 33.224C190.565 33.512 190.645 33.656 190.805 33.656C190.965 33.656 191.301 33.48 191.813 33.128C192.357 32.776 192.741 32.52 192.965 32.36C194.085 31.56 195.141 30.648 196.133 29.624C197.157 28.6 198.069 27.544 198.869 26.456C199.125 26.104 199.365 25.752 199.589 25.4C199.813 25.048 200.037 24.712 200.261 24.392C200.421 24.168 200.581 24.056 200.741 24.056C201.093 24.056 201.429 24.296 201.749 24.776C202.101 25.256 202.277 25.672 202.277 26.024C202.277 26.184 202.245 26.28 202.181 26.312C202.149 26.344 202.053 26.44 201.893 26.6C201.413 27.08 200.933 27.752 200.453 28.616C200.005 29.48 199.605 30.36 199.253 31.256C198.933 32.12 198.693 32.856 198.533 33.464C198.501 33.56 198.469 33.688 198.437 33.848C198.437 33.976 198.517 34.024 198.677 33.992C198.997 33.896 199.509 33.544 200.213 32.936C200.949 32.296 201.733 31.576 202.565 30.776C203.429 29.944 204.197 29.176 204.869 28.472C205.573 27.768 206.037 27.272 206.261 26.984C206.325 26.92 206.389 26.856 206.453 26.792C206.549 26.696 206.645 26.648 206.741 26.648C206.965 26.648 207.077 26.76 207.077 26.984C207.077 27.112 206.821 27.496 206.309 28.136C205.797 28.744 205.157 29.464 204.389 30.296C203.621 31.096 202.837 31.896 202.037 32.696C201.237 33.464 200.533 34.12 199.925 34.664C199.349 35.176 198.981 35.432 198.821 35.432ZM208.635 35.48C208.091 35.48 207.435 35.272 206.667 34.856C205.899 34.44 205.371 33.992 205.083 33.512C204.891 33.192 204.795 32.808 204.795 32.36C204.795 31.784 204.987 30.952 205.371 29.864C205.755 28.776 206.427 27.368 207.387 25.64C208.347 23.912 209.675 21.8 211.371 19.304C212.779 17.32 214.235 15.352 215.739 13.4C217.243 11.416 218.683 9.736 220.059 8.36C221.307 6.952 222.603 5.688 223.947 4.568C225.291 3.416 226.635 2.52 227.979 1.88C229.323 1.208 230.587 0.903998 231.771 0.967998C232.507 0.999999 233.067 1.32 233.451 1.928C233.835 2.504 234.027 3.144 234.027 3.848C234.027 3.976 234.011 4.104 233.979 4.232C233.979 4.328 233.963 4.44 233.931 4.568C233.803 5.4 233.307 6.344 232.443 7.4C231.579 8.456 230.507 9.592 229.227 10.808C227.947 11.992 226.587 13.208 225.147 14.456C223.707 15.704 222.315 16.936 220.971 18.152C219.659 19.368 218.523 20.52 217.563 21.608C216.603 22.696 215.979 23.672 215.691 24.536C215.627 24.664 215.563 24.824 215.499 25.016C215.467 25.176 215.387 25.096 215.259 24.776C215.195 24.584 215.163 24.424 215.163 24.296C215.163 23.656 215.467 22.84 216.075 21.848C216.715 20.856 217.531 19.784 218.523 18.632C219.515 17.48 220.571 16.344 221.691 15.224C222.843 14.072 223.947 13.016 225.003 12.056C226.059 11.064 226.955 10.264 227.691 9.656C227.851 9.528 228.171 9.208 228.651 8.696C229.163 8.184 229.707 7.592 230.283 6.92C230.891 6.216 231.403 5.56 231.819 4.952C232.235 4.312 232.443 3.832 232.443 3.512C232.443 3.288 232.251 3.176 231.867 3.176C230.907 3.176 229.675 3.592 228.171 4.424C226.699 5.256 224.907 6.696 222.795 8.744C220.683 10.792 218.171 13.656 215.259 17.336C214.907 17.752 214.395 18.408 213.723 19.304C213.083 20.2 212.395 21.24 211.659 22.424C210.923 23.576 210.203 24.76 209.499 25.976C208.827 27.16 208.267 28.28 207.819 29.336C207.403 30.392 207.195 31.272 207.195 31.976C207.195 32.36 207.243 32.792 207.339 33.272C207.467 33.72 207.787 33.944 208.299 33.944C209.163 33.944 210.219 33.576 211.467 32.84C212.747 32.072 214.043 31.288 215.355 30.488C216.731 29.624 218.059 28.76 219.339 27.896C220.651 27.032 221.771 26.2 222.699 25.4L224.187 22.712C224.699 21.816 225.355 20.776 226.155 19.592C226.987 18.408 227.915 17.192 228.939 15.944C229.963 14.664 231.035 13.448 232.155 12.296C233.307 11.144 234.443 10.136 235.563 9.272C236.715 8.408 237.803 7.8 238.827 7.448C239.243 7.288 239.611 7.208 239.931 7.208C240.539 7.208 240.955 7.416 241.179 7.832C241.435 8.216 241.771 8.536 242.187 8.792C242.443 8.952 242.571 9.208 242.571 9.56C242.571 10.296 242.171 11.176 241.371 12.2C240.571 13.224 239.531 14.312 238.251 15.464C236.971 16.616 235.595 17.768 234.123 18.92C232.651 20.04 231.227 21.08 229.851 22.04C228.507 23 227.355 23.8 226.395 24.44C225.435 25.08 224.827 25.48 224.571 25.64C224.091 26.536 223.643 27.56 223.227 28.712C222.811 29.864 222.603 30.952 222.603 31.976C222.603 32.36 222.651 32.792 222.747 33.272C222.875 33.72 223.195 33.944 223.707 33.944C224.187 33.944 224.747 33.768 225.387 33.416C226.027 33.064 226.651 32.68 227.259 32.264C227.867 31.816 228.347 31.448 228.699 31.16C229.531 30.488 230.267 29.8 230.907 29.096C231.547 28.392 232.299 27.592 233.163 26.696C233.227 26.632 233.291 26.584 233.355 26.552C233.419 26.488 233.499 26.456 233.595 26.456C233.787 26.456 233.883 26.568 233.883 26.792C233.883 26.984 233.803 27.16 233.643 27.32C232.363 28.728 231.019 30.184 229.611 31.688C228.235 33.192 226.699 34.376 225.003 35.24C224.683 35.4 224.363 35.48 224.043 35.48C223.499 35.48 222.843 35.272 222.075 34.856C221.307 34.44 220.779 33.992 220.491 33.512C220.299 33.192 220.203 32.808 220.203 32.36C220.203 31.752 220.347 31 220.635 30.104C220.923 29.208 221.323 28.232 221.835 27.176C220.875 27.912 219.819 28.696 218.667 29.528C217.515 30.328 216.363 31.112 215.211 31.88C214.059 32.616 212.987 33.288 211.995 33.896C211.035 34.472 210.235 34.92 209.595 35.24C209.275 35.4 208.955 35.48 208.635 35.48ZM226.107 23.144C226.587 22.984 227.259 22.6 228.123 21.992C228.987 21.352 229.947 20.6 231.003 19.736C232.091 18.872 233.179 17.96 234.267 17C235.387 16.008 236.411 15.064 237.339 14.168C238.299 13.24 239.083 12.456 239.691 11.816C240.331 11.144 240.699 10.68 240.795 10.424C240.859 10.232 240.891 10.104 240.891 10.04C240.891 9.784 240.763 9.608 240.507 9.512C240.283 9.416 240.027 9.368 239.739 9.368C239.579 9.368 239.419 9.384 239.259 9.416C239.099 9.448 238.955 9.48 238.827 9.512C238.283 9.704 237.563 10.184 236.667 10.952C235.771 11.688 234.811 12.6 233.787 13.688C232.763 14.744 231.739 15.864 230.715 17.048C229.723 18.232 228.811 19.368 227.979 20.456C227.179 21.512 226.555 22.408 226.107 23.144Z" fill="#FADDC4"/>
<path d="M20.888 62.236C20.412 62.0493 19.9127 61.956 19.39 61.956C18.3353 61.956 17.4813 62.3433 16.828 63.118C16.184 63.8927 15.862 65.0267 15.862 66.52C15.862 68.0133 16.2027 69.0587 16.884 69.656C17.3507 70.076 17.9993 70.286 18.83 70.286C19.362 70.286 19.894 70.2253 20.426 70.104C20.9673 69.9827 21.336 69.866 21.532 69.754L21.728 70.44C21.3173 70.7107 20.5987 70.8973 19.572 71C19.2733 71.0373 18.956 71.056 18.62 71.056C18.2933 71.056 17.906 71.0047 17.458 70.902C17.01 70.79 16.5947 70.5707 16.212 70.244C15.344 69.5067 14.91 68.2793 14.91 66.562C14.91 64.8447 15.316 63.5193 16.128 62.586C16.9493 61.6433 18.0133 61.172 19.32 61.172C20.048 61.172 20.6733 61.3167 21.196 61.606C21.392 61.7087 21.546 61.8207 21.658 61.942V63.972L20.958 64.014L20.888 62.236ZM29.3832 63.832C29.3832 65.176 28.9212 66.0767 27.9972 66.534L30.1112 71H29.0892L27.1012 66.828C26.7652 66.884 26.3965 66.912 25.9952 66.912H24.9172V71H23.9652V61.2H25.9952C27.1338 61.2 27.9645 61.3773 28.4872 61.732C29.0845 62.1333 29.3832 62.8333 29.3832 63.832ZM24.9172 61.97V66.142H25.9252C26.7558 66.142 27.3812 65.974 27.8012 65.638C28.2212 65.302 28.4312 64.7187 28.4312 63.888C28.4312 62.824 27.9458 62.208 26.9752 62.04C26.6672 61.9933 26.3172 61.97 25.9252 61.97H24.9172ZM37.3168 62.04H33.2428V65.722H37.0228L36.9528 66.562H33.2428V70.16H37.6668L37.5968 71H32.2908V61.2H37.3868L37.3168 62.04ZM45.3968 68.41H41.0848L40.1888 71H39.2788L42.8208 61.2H43.6748L47.3428 71H46.3208L45.3968 68.41ZM41.3228 67.71H45.1448L43.1988 62.264L41.3228 67.71ZM51.224 71V62.04H48.452L48.522 61.2H54.864L54.794 62.04H52.106V71H51.224ZM59.5272 71H56.8952V70.328L57.7352 70.23V61.984L56.9652 61.886V61.2H59.4572V61.886L58.6872 61.984V70.23L59.5272 70.328V71ZM68.4887 71L62.9027 62.46L62.9727 71H62.0907V61.2H63.1127L68.6847 69.74L68.6287 61.2H69.5107V71H68.4887ZM78.3315 62.572C78.0889 62.3293 77.6502 62.1473 77.0155 62.026C76.7822 61.9793 76.4789 61.956 76.1055 61.956C75.7322 61.956 75.3355 62.0447 74.9155 62.222C74.5049 62.3993 74.1409 62.6747 73.8235 63.048C73.1422 63.8693 72.8015 65.0267 72.8015 66.52C72.8015 68.0133 73.1422 69.0587 73.8235 69.656C74.2902 70.076 74.9062 70.286 75.6715 70.286C76.4462 70.286 77.1882 70.188 77.8975 69.992L77.9675 66.66H78.7375V70.44C78.3269 70.7013 77.5849 70.888 76.5115 71C76.2129 71.0373 75.8955 71.056 75.5595 71.056C75.2329 71.056 74.8455 71.0047 74.3975 70.902C73.9495 70.79 73.5342 70.5707 73.1515 70.244C72.2835 69.5067 71.8495 68.2793 71.8495 66.562C71.8495 64.8447 72.2602 63.5193 73.0815 62.586C73.9029 61.6433 74.9622 61.172 76.2595 61.172L76.7075 61.2C77.2955 61.256 77.7435 61.3633 78.0515 61.522C78.3689 61.6807 78.5835 61.8207 78.6955 61.942L78.3315 62.572ZM91.5718 61.452L91.4038 62.25C90.6851 62.0913 90.0738 62.012 89.5698 62.012C87.7591 62.012 86.8538 62.5627 86.8538 63.664C86.8538 64.084 86.9845 64.406 87.2458 64.63C87.5165 64.854 87.8525 65.0407 88.2538 65.19C88.6645 65.33 89.1031 65.4607 89.5698 65.582C90.0365 65.694 90.4705 65.848 90.8718 66.044C91.8145 66.5107 92.2858 67.2247 92.2858 68.186C92.2858 69.1473 91.9265 69.8753 91.2078 70.37C90.5918 70.7993 89.7798 71.014 88.7718 71.014C87.5211 71.014 86.4665 70.7293 85.6078 70.16L85.9718 69.446C86.2238 69.6233 86.5831 69.7913 87.0498 69.95C87.5165 70.0993 87.9691 70.174 88.4078 70.174C89.2665 70.174 89.9431 70.034 90.4378 69.754C91.0351 69.4087 91.3338 68.914 91.3338 68.27C91.3338 67.794 91.1985 67.4253 90.9278 67.164C90.6665 66.8933 90.3305 66.6787 89.9198 66.52C89.5185 66.352 89.0845 66.212 88.6178 66.1C88.1511 65.9787 87.7171 65.8293 87.3158 65.652C86.3731 65.2413 85.9018 64.63 85.9018 63.818C85.9018 63.006 86.1818 62.362 86.7418 61.886C87.3018 61.41 88.0951 61.172 89.1218 61.172C89.9151 61.172 90.7318 61.2653 91.5718 61.452ZM96.4883 71V62.04H93.7163L93.7863 61.2H100.128L100.058 62.04H97.3703V71H96.4883ZM107.258 68.41H102.946L102.05 71H101.14L104.682 61.2H105.536L109.204 71H108.182L107.258 68.41ZM103.184 67.71H107.006L105.06 62.264L103.184 67.71ZM113.085 71V62.04H110.313L110.383 61.2H116.725L116.655 62.04H113.967V71H113.085ZM123.922 62.04H119.848V65.722H123.628L123.558 66.562H119.848V70.16H124.272L124.202 71H118.896V61.2H123.992L123.922 62.04ZM126.262 71V61.2H127.214L130.812 68.368L134.41 61.2H135.362V71H134.48V62.824L131.288 69.166H130.336L127.144 62.824V71H126.262ZM142.925 62.04H138.851V65.722H142.631L142.561 66.562H138.851V70.16H143.275L143.205 71H137.899V61.2H142.995L142.925 62.04ZM151.663 71L146.077 62.46L146.147 71H145.265V61.2H146.287L151.859 69.74L151.803 61.2H152.685V71H151.663ZM157.215 71V62.04H154.443L154.513 61.2H160.855L160.785 62.04H158.097V71H157.215ZM173.31 61.452L173.142 62.25C172.424 62.0913 171.812 62.012 171.308 62.012C169.498 62.012 168.592 62.5627 168.592 63.664C168.592 64.084 168.723 64.406 168.984 64.63C169.255 64.854 169.591 65.0407 169.992 65.19C170.403 65.33 170.842 65.4607 171.308 65.582C171.775 65.694 172.209 65.848 172.61 66.044C173.553 66.5107 174.024 67.2247 174.024 68.186C174.024 69.1473 173.665 69.8753 172.946 70.37C172.33 70.7993 171.518 71.014 170.51 71.014C169.26 71.014 168.205 70.7293 167.346 70.16L167.71 69.446C167.962 69.6233 168.322 69.7913 168.788 69.95C169.255 70.0993 169.708 70.174 170.146 70.174C171.005 70.174 171.682 70.034 172.176 69.754C172.774 69.4087 173.072 68.914 173.072 68.27C173.072 67.794 172.937 67.4253 172.666 67.164C172.405 66.8933 172.069 66.6787 171.658 66.52C171.257 66.352 170.823 66.212 170.356 66.1C169.89 65.9787 169.456 65.8293 169.054 65.652C168.112 65.2413 167.64 64.63 167.64 63.818C167.64 63.006 167.92 62.362 168.48 61.886C169.04 61.41 169.834 61.172 170.86 61.172C171.654 61.172 172.47 61.2653 173.31 61.452ZM176.123 71V61.2H178.153C179.301 61.2 180.131 61.382 180.645 61.746C181.242 62.166 181.541 62.8847 181.541 63.902C181.541 65.6007 180.887 66.6367 179.581 67.01C179.161 67.1313 178.685 67.192 178.153 67.192H177.075V71H176.123ZM177.075 61.97V66.422H178.083C178.923 66.422 179.548 66.24 179.959 65.876C180.379 65.5027 180.589 64.9007 180.589 64.07C180.589 63.23 180.379 62.67 179.959 62.39C179.548 62.11 178.923 61.97 178.083 61.97H177.075ZM189.16 68.41H184.848L183.952 71H183.042L186.584 61.2H187.438L191.106 71H190.084L189.16 68.41ZM185.086 67.71H188.908L186.962 62.264L185.086 67.71ZM198.761 62.236C198.285 62.0493 197.785 61.956 197.263 61.956C196.208 61.956 195.354 62.3433 194.701 63.118C194.057 63.8927 193.735 65.0267 193.735 66.52C193.735 68.0133 194.075 69.0587 194.757 69.656C195.223 70.076 195.872 70.286 196.703 70.286C197.235 70.286 197.767 70.2253 198.299 70.104C198.84 69.9827 199.209 69.866 199.405 69.754L199.601 70.44C199.19 70.7107 198.471 70.8973 197.445 71C197.146 71.0373 196.829 71.056 196.493 71.056C196.166 71.056 195.779 71.0047 195.331 70.902C194.883 70.79 194.467 70.5707 194.085 70.244C193.217 69.5067 192.783 68.2793 192.783 66.562C192.783 64.8447 193.189 63.5193 194.001 62.586C194.822 61.6433 195.886 61.172 197.193 61.172C197.921 61.172 198.546 61.3167 199.069 61.606C199.265 61.7087 199.419 61.8207 199.531 61.942V63.972L198.831 64.014L198.761 62.236ZM206.864 62.04H202.79V65.722H206.57L206.5 66.562H202.79V70.16H207.214L207.144 71H201.838V61.2H206.934L206.864 62.04ZM214.857 61.452L214.689 62.25C213.97 62.0913 213.359 62.012 212.855 62.012C211.044 62.012 210.139 62.5627 210.139 63.664C210.139 64.084 210.269 64.406 210.531 64.63C210.801 64.854 211.137 65.0407 211.539 65.19C211.949 65.33 212.388 65.4607 212.855 65.582C213.321 65.694 213.755 65.848 214.157 66.044C215.099 66.5107 215.571 67.2247 215.571 68.186C215.571 69.1473 215.211 69.8753 214.493 70.37C213.877 70.7993 213.065 71.014 212.057 71.014C210.806 71.014 209.751 70.7293 208.893 70.16L209.257 69.446C209.509 69.6233 209.868 69.7913 210.335 69.95C210.801 70.0993 211.254 70.174 211.693 70.174C212.551 70.174 213.228 70.034 213.723 69.754C214.32 69.4087 214.619 68.914 214.619 68.27C214.619 67.794 214.483 67.4253 214.213 67.164C213.951 66.8933 213.615 66.6787 213.205 66.52C212.803 66.352 212.369 66.212 211.903 66.1C211.436 65.9787 211.002 65.8293 210.601 65.652C209.658 65.2413 209.187 64.63 209.187 63.818C209.187 63.006 209.467 62.362 210.027 61.886C210.587 61.41 211.38 61.172 212.407 61.172C213.2 61.172 214.017 61.2653 214.857 61.452Z" fill="#FADDC4"/>
</svg>
